<?xml version="1.0" encoding="UTF-8" standalone="no"?>
<!-- Created with Inkscape (http://www.inkscape.org/) -->

<svg
   xmlns:ns2="http://ns.adobe.com/AdobeIllustrator/10.0/"
   xmlns:dc="http://purl.org/dc/elements/1.1/"
   xmlns:cc="http://creativecommons.org/ns#"
   xmlns:rdf="http://www.w3.org/1999/02/22-rdf-syntax-ns#"
   xmlns:svg="http://www.w3.org/2000/svg"
   xmlns="http://www.w3.org/2000/svg"
   xmlns:sodipodi="http://sodipodi.sourceforge.net/DTD/sodipodi-0.dtd"
   xmlns:inkscape="http://www.inkscape.org/namespaces/inkscape"
   width="64"
   height="64"
   id="svg5048"
   version="1.1"
   inkscape:version="0.92.4 (5da689c313, 2019-01-14)"
   sodipodi:docname="logo-text-version.svg"
   inkscape:export-filename="logo.png"
   inkscape:export-xdpi="96"
   inkscape:export-ydpi="96">
  <defs
     id="defs5050">
    <style
       id="current-color-scheme"
       type="text/css">      .ColorScheme-Text {
        color:#31363b;
      }
      .ColorScheme-Background{
        color:#eff0f1;
      }
      .ColorScheme-ViewText {
        color:#31363b;
      }
      .ColorScheme-ViewBackground{
        color:#fcfcfc;
      }
      .ColorScheme-ViewHover {
        color:#3daee9;
      }
      .ColorScheme-ViewFocus{
        color:#3daee9;
      }
      .ColorScheme-ButtonText {
        color:#31363b;
      }
      .ColorScheme-ButtonBackground{
        color:#eff0f1;
      }
      .ColorScheme-ButtonHover {
        color:#3daee9;
      }
      .ColorScheme-ButtonFocus{
        color:#3daee9;
      }</style>
  </defs>
  <sodipodi:namedview
     id="base"
     pagecolor="#ffffff"
     bordercolor="#666666"
     borderopacity="1.0"
     inkscape:pageopacity="0.0"
     inkscape:pageshadow="2"
     inkscape:zoom="5.34"
     inkscape:cx="19.513196"
     inkscape:cy="47.427968"
     inkscape:document-units="px"
     inkscape:current-layer="g4713"
     showgrid="false"
     inkscape:window-width="1920"
     inkscape:window-height="1014"
     inkscape:window-x="0"
     inkscape:window-y="0"
     inkscape:window-maximized="1">
    <inkscape:grid
       type="xygrid"
       id="grid3011"
       empspacing="5"
       visible="true"
       enabled="true"
       snapvisiblegridlinesonly="true" />
  </sodipodi:namedview>
  <metadata
     id="metadata5053">
    <rdf:RDF>
      <cc:Work
         rdf:about="">
        <dc:format>image/svg+xml</dc:format>
        <dc:type
           rdf:resource="http://purl.org/dc/dcmitype/StillImage" />
        <dc:title></dc:title>
      </cc:Work>
    </rdf:RDF>
  </metadata>
  <g
     inkscape:label="Layer 1"
     inkscape:groupmode="layer"
     id="layer1"
     transform="translate(0,-988.3622)">
    <rect
       style="fill:#8b9299;fill-opacity:0;stroke:none"
       id="rect3024"
       width="20"
       height="60"
       x="864"
       y="543"
       transform="translate(0,52.36218)"
       ry="10" />
    <g
       id="g4713">
      <g
         id="g840"
         transform="matrix(0.21484375,0,0,0.21484375,4.5,821.76883)">
        <rect
           style="opacity:0;fill:#ffffff;fill-opacity:1;stroke:none;stroke-width:4"
           id="rect3861"
           width="256"
           height="256"
           x="0"
           y="796.36188" />
        <g
           id="g4602"
           transform="translate(-4.59483e-4,-1.7495)"
           style="fill:#ffcb08;fill-opacity:1">
          <g
             style="fill:#ffcb08;fill-opacity:1"
             transform="matrix(1.299829,0,0,1.299829,-259.34594,577.67633)"
             id="g5082">
            <polygon
               id="polygon5084"
               points="218.433,178.322 202.927,198.549 225.85,234.284 248.776,190.457 "
               ns2:knockout="Off"
               style="fill:#ffcb08;fill-opacity:1" />
            <polygon
               id="polygon5086"
               points="377.565,178.322 393.074,198.549 370.148,234.284 347.224,190.457 "
               ns2:knockout="Off"
               style="fill:#ffcb08;fill-opacity:1" />
          </g>
          <path
             id="path5088"
             d="m 219.01323,895.98495 -30.65777,-58.35192 c -1.14125,-2.15642 -4.67808,-4.92245 -7.02167,-5.48008 l -0.56933,-0.14038 -46.12313,-10.97706 c -3.18198,-0.7604 -8.99092,-0.77339 -12.1794,-0.0247 l -47.221487,11.04205 -0.587522,0.13778 c -2.335793,0.54463 -5.860929,3.28986 -6.99438,5.44108 l -30.659067,58.35192 -4.245241,8.06674 c -1.342724,2.55807 -2.166815,7.69759 -1.688478,10.55851 l 8.519079,51.20417 c 0.288562,1.74307 2.370888,4.02947 4.052867,4.45451 l 23.198048,5.85573 c -0.570625,-2.2799 4.689783,-4.65599 4.681984,-6.90599 L 83.329279,943.469 c 0.0078,0.44584 -0.0312,0.90598 -0.119584,1.36222 l -4.428518,22.91208 c -0.480936,2.50348 0.487436,6.99178 1.949744,9.06631 l 2.451477,3.45235 11.524284,16.26086 16.921178,23.89608 c 1.29853,1.8262 4.87695,3.6928 7.09576,3.6928 h 18.56416 c 2.21751,0 5.79464,-1.8666 7.08667,-3.6928 l 16.76519,-23.66211 11.56588,-16.32066 2.56586,-3.62652 c 1.46621,-2.07453 2.43198,-6.56283 1.94975,-9.06631 l -4.42592,-22.91208 c -0.0806,-0.45624 -0.12348,-0.91638 -0.11699,-1.35442 l 11.81025,25.74571 c -0.004,2.2773 5.24611,4.68588 4.66249,7.00868 l 23.20714,-5.94282 c 1.68458,-0.43024 3.77211,-2.72704 4.05937,-4.47531 l 8.52298,-51.20417 c 0.48224,-2.86092 -0.34056,-8.00044 -1.68718,-10.55851 z"
             ns2:knockout="Off"
             style="fill:#ffcb08;fill-opacity:1;stroke-width:1.29982901"
             inkscape:connector-curvature="0" />
        </g>
        <path
           inkscape:connector-curvature="0"
           transform="translate(0,796.3622)"
           style="fill:#1c1c1c;fill-opacity:1;stroke-width:1.29982901"
           d="M 26.386719,7.9472656 C 22.372847,7.6521956 12.098191,16.206757 8.6523438,20.554688 5.1973983,24.896117 1.3741762,31.42818 0.1484375,35.0625 -1.0773013,38.69812 5.5709272,53.022247 10.429688,60.216797 l 9.93164,14.728515 c 4.850962,7.194551 7.525231,15.511653 5.931641,18.476563 -1.589691,2.97661 -3.762926,8.263865 -4.833985,11.753905 -1.072359,3.49654 0.166573,18.82344 1.613282,27.38281 l 3.101562,18.26953 c 1.449309,8.55808 4.173828,18.42339 6.050781,21.92383 1.882153,3.50304 16.767875,9.68591 25.197266,11.77344 l 3.771484,0.93555 c 0.606246,0.15039 1.229079,0.33503 1.859375,0.53906 -12.474791,6.76585 -24.184789,14.88104 -34.404296,24.04102 -1.513001,1.3545 0.374546,3.43111 1.990234,2.3496 3.58631,-2.39803 7.135026,-4.82889 10.68164,-7.25585 l 29.75586,-15.4961 c 2.12967,1.21643 4.224548,2.60812 6.191406,4.10156 -0.316141,0.25832 -0.641604,0.50953 -0.955078,0.76954 -9.721421,8.06414 -18.981591,17.80014 -26.009766,28.30664 -0.811093,1.2128 0.834598,2.85037 1.939454,1.76757 2.083256,-2.04161 4.142576,-4.17624 6.201171,-6.35546 l 25.009766,-18.93946 c 0.849593,0.92303 1.620902,1.85021 2.285156,2.77149 l 1.134766,1.57031 c -1.527493,1.56378 -3.020882,3.16472 -4.464844,4.80859 -8.758247,9.971 -16.443028,21.64274 -21.882812,33.74414 -0.629117,1.4012 1.473476,2.41595 2.322265,1.21875 1.632261,-2.30229 3.231474,-4.68622 4.826172,-7.10937 l 24.091797,-25.89453 0.78125,1.08203 c 5.073232,7.0425 11.694695,14.77043 14.712895,17.17773 3.00651,2.406 15.7307,4.375 20.74414,4.375 5.02254,0 12.15683,-0.84821 15.87304,-1.88281 3.71232,-1.0334 14.50685,-12.62612 19.58008,-19.66992 l 0.78125,-1.08203 24.15234,25.95898 c 1.60131,2.43661 3.20758,4.83204 4.84376,7.14258 0.89168,1.2583 2.79649,-0.0975 2.20117,-1.42383 -5.22141,-11.627 -12.62862,-22.50728 -20.71875,-32.33398 -1.74281,-2.11658 -3.58494,-4.20334 -5.52539,-6.20508 l 0.96093,-1.33008 c 0.69728,-0.96569 1.51624,-1.9384 2.41602,-2.90625 l 24.98828,18.92578 c 2.01016,2.12722 4.02187,4.21022 6.05469,6.20313 1.22963,1.2063 2.9619,-0.29804 2.01562,-1.71094 -7.11916,-10.6274 -16.38855,-20.01247 -26.08007,-28.32227 -0.25012,-0.21447 -0.51498,-0.4179 -0.76758,-0.63086 1.97592,-1.49287 4.07749,-2.88099 6.21093,-4.09374 l 29.82032,15.53124 c 3.53821,2.43869 7.07701,4.88032 10.6582,7.27344 1.69628,1.1335 3.21039,-1.23068 1.76758,-2.52148 -10.14488,-9.08448 -21.79452,-17.1646 -34.20313,-23.91016 0.56198,-0.17928 1.11564,-0.34033 1.65821,-0.47656 l 3.92578,-0.98633 c 8.41769,-2.11482 18.04486,-5.59747 21.38672,-7.73828 3.34446,-2.14342 8.37882,-17.45951 9.83203,-26.01758 l 3.09765,-18.26367 c 1.44541,-8.56327 2.55258,-18.54996 2.45899,-22.20898 -0.0923,-3.64992 -4.0874,-13.955035 -5.67969,-16.931645 -1.58839,-2.96621 1.08393,-11.283966 5.93359,-18.478516 l 9.92969,-14.728515 c 4.85357,-7.19195 11.50243,-21.514777 10.27539,-25.154297 -1.21924,-3.63562 -5.05414,-10.161186 -8.49609,-14.503906 -3.44975,-4.34793 -9.06386,-9.493597 -12.47461,-11.4355472 -3.41335,-1.9497401 -19.0176,2.3142082 -26.91016,5.9238282 l -5.76172,2.630859 c -7.89256,3.61222 -14.46117,6.619241 -14.59375,6.681641 -0.12868,0.0676 -1.05528,7.85e-4 -1.77539,-0.296875 -0.7227,-0.31066 -9.50555,-2.472179 -17.96093,-4.449219 l -15.13672,-3.537109 c -8.45799,-1.97704 -18.20523,-3.86125 -21.66797,-4.1875 -3.46535,-0.32886 -18.24383,2.145287 -26.69922,4.085937 l -16.205078,3.72461 c -8.460587,1.93934 -15.971935,3.704151 -16.681641,3.919922 -0.717506,0.21058 -2.712474,0.939977 -2.847656,0.867187 -0.133883,-0.0767 -6.955741,-3.198327 -14.845703,-6.810547 L 48.041016,15.044922 C 40.141955,11.435302 30.400591,8.2423256 26.386719,7.9472656 Z M 229.14648,19.8125 c 0.89818,-0.0195 4.97083,4.174195 8.42188,8.515625 3.44195,4.34533 6.54681,8.515638 6.88086,9.273437 v 0.830079 0.664062 c -0.22617,0.57582 -3.94889,6.28974 -8.26172,12.6875 -4.31283,6.40426 -19.38666,17.525131 -23.47852,9.869141 l -6.94726,-12.970703 c -4.10096,-7.6573 -7.5536,-14.103255 -7.67969,-14.328125 -0.13388,-0.22357 5.95966,-3.76667 13.85352,-7.375 l 1.22851,-0.566407 c 7.88996,-3.60183 15.08423,-6.572309 15.98242,-6.599609 z M 26.154297,19.8203 c 1.498285,0.107296 9.287004,3.215082 16.6875,6.591797 l 1.232422,0.566407 c 7.893862,3.60833 14.236737,6.74388 14.097656,6.96875 -0.141682,0.22488 -3.831319,7.077075 -7.925781,14.734375 l -6.94336,12.970703 c -4.094462,7.65599 -19.168297,-3.464881 -23.486328,-9.869141 -4.319332,-6.39776 -8.031642,-12.11168 -8.257812,-12.6875 V 38.431629 37.60155 c 0.331456,-0.757799 3.43176,-4.928107 6.878906,-9.273437 3.454946,-4.34143 6.829295,-8.159421 7.503906,-8.488281 0.042,-0.02031 0.113005,-0.02669 0.212891,-0.01953 z m 100.820313,4.455079 c 2.43198,-0.19368 14.46323,1.998216 22.91992,3.972656 l 14.57617,3.404297 c 8.45409,1.97704 15.49831,3.625072 15.65039,3.664062 0.15468,0.0325 1.58088,0.784073 3.16797,1.664063 1.58969,0.88128 7.35541,9.944913 11.45117,17.595703 l 15.22852,28.451172 c 4.09186,7.65209 8.3887,15.667784 9.53125,17.808598 1.14644,2.13562 3.48388,8.09939 3.57227,10.22461 0.0949,2.11612 -1.01814,10.85208 -2.46485,19.41406 l -3.10351,18.27148 c -1.44671,8.55418 -3.15673,16.43936 -3.80664,17.51172 -0.63432,1.07106 -7.94448,3.64988 -14.21485,5.22657 -6.27818,1.57668 -11.20141,1.83637 -10.96094,0.58593 0.24047,-1.25953 -3.3981,-10.07174 -8.08789,-16.90234 -4.69758,-6.8254 -8.53384,-12.21639 -8.52734,-11.97852 0.007,0.23657 1.07629,5.84451 2.27734,11.91993 1.19714,6.08318 2.07009,12.57482 1.94141,14.42968 -0.13258,1.85615 -2.2512,6.15272 -2.94141,7.11719 -0.001,0.002 -0.0123,0.0176 -0.0137,0.0195 -8.01239,-3.22622 -16.16929,-5.88692 -24.3125,-7.85742 -2.22531,-0.53943 -3.54356,2.72645 -1.25976,3.41016 3.40697,1.02086 6.77953,2.10018 10.125,3.24023 l 11.85742,6.17578 c -0.96863,1.34143 -1.45429,2.01454 -2.62696,3.63672 -5.93105,-3.43576 -12.36579,-5.87888 -19.27343,-6.40625 -1.92634,-0.14818 -2.13676,2.6223 -0.2793,2.94336 0.97403,0.16839 1.92794,0.3762 2.87305,0.59961 l 12.12109,9.17969 c -0.86761,1.20243 -1.72518,2.39083 -2.69141,3.73046 -4.17047,-2.91991 -8.72476,-5.22095 -13.72265,-6.49023 -1.80936,-0.46014 -2.85881,2.11833 -1.02735,2.77344 0.97961,0.35051 1.93058,0.73931 2.86915,1.14453 l 7.73632,8.31445 c -1.18025,1.63589 -2.18339,3.02773 -3.23828,4.48828 -0.98787,1.36919 -1.98146,2.70061 -2.95508,3.99024 -0.17681,-0.13535 -0.33977,-0.28355 -0.52539,-0.41016 l -11.48632,-7.83594 c -3.44974,-2.35399 -6.26495,-4.35562 -6.25196,-4.44921 0.0104,-0.0884 0.0254,-3.76311 0.0254,-7.93946 v -11.625 c 0.0909,-0.15632 0.18337,-0.31217 0.26953,-0.48437 l 18.66407,-21.22071 c 1.86006,-3.73051 -0.0287,-6.79101 -4.20117,-6.79101 h -35.7168 c -4.17895,0 -6.06187,3.0605 -4.19922,6.79101 l 18.66602,21.22071 c 0.0868,0.17295 0.17795,0.3294 0.26953,0.48633 v 11.62304 c 0,4.17635 0.008,7.6727 0.0117,7.77149 0.009,0.091 -2.78397,2.26319 -6.23632,4.61718 l -11.48828,7.83594 c -0.17428,0.11896 -0.32758,0.25807 -0.49414,0.38477 -1.06025,-1.35603 -2.10963,-2.73446 -3.07618,-4.07422 -1.03297,-1.4313 -2.00271,-2.77927 -3.15429,-4.375 l 7.73828,-8.31836 c 0.97715,-0.42405 1.96821,-0.83001 2.99023,-1.19531 1.57019,-0.56153 0.71727,-3.20112 -0.89062,-2.79297 -5.16635,1.31154 -9.75823,3.65076 -13.945316,6.61328 -0.983003,-1.36238 -1.845175,-2.55668 -2.728515,-3.78125 L 105.707,182.43355 c 0.99026,-0.23678 1.99162,-0.45401 3.01367,-0.63086 1.91335,-0.33015 1.35158,-3.05638 -0.51367,-2.91211 -6.93599,0.531 -13.267088,3.0021 -19.128905,6.4336 -1.197493,-1.65863 -1.663404,-2.30192 -2.65625,-3.67774 l 11.998047,-6.24804 c 3.202628,-1.08183 6.426868,-2.1109 9.675778,-3.08399 2.19151,-0.65641 1.68544,-4.14225 -0.63086,-3.58203 -8.256609,1.99699 -16.517828,4.6873 -24.626949,7.95117 -0.0084,-0.0115 -0.07234,-0.0988 -0.08008,-0.10937 -0.655113,-0.91638 -1.736817,-3.09221 -2.394531,-4.83008 -0.653814,-1.74177 0.263789,-10.55157 1.457031,-16.63476 1.198443,-6.07542 2.202534,-11.24458 2.236329,-11.49024 0.0351,-0.24307 -3.784187,4.72083 -8.480469,11.54883 -4.697582,6.8319 -8.465348,13.42074 -8.38086,14.64648 0.08059,1.22704 -4.42037,3.16331 -10.685546,1.60743 -6.263876,-1.55331 -12.225721,-3.41661 -13.242188,-4.13282 -1.015166,-0.7162 -3.320228,-9.98683 -4.773437,-18.54101 l -3.095703,-18.27149 c -1.45061,-8.56198 -2.558432,-17.29989 -2.464844,-19.41601 0.09489,-2.12522 2.427123,-8.08704 3.576172,-10.22266 1.141249,-2.139511 5.433535,-10.155205 9.529296,-17.808595 L 61.267578,54.578125 C 65.36074,46.928635 69.740466,39.606464 71,38.302734 c 1.260834,-1.29983 4.718373,-2.918678 4.876953,-2.955078 0.163778,-0.0364 7.209988,-1.657653 15.671875,-3.595703 l 15.628902,-3.591797 c 8.45409,-1.94325 17.3662,-3.689795 19.79688,-3.884765 z m -21.40039,12.816406 c -2.0476,0.1636 -4.43115,2.938639 -5.650392,6.785156 -1.402515,4.39732 -0.750755,8.522056 1.443362,9.222656 2.20061,0.69931 5.11375,-2.300592 6.51367,-6.695312 1.39342,-4.38823 0.74293,-8.52074 -1.45508,-9.21875 -0.27443,-0.08774 -0.55905,-0.117122 -0.85156,-0.09375 z m -26.484376,1.5 a 8.3514013,10.437627 0 0 0 -8.351563,10.4375 8.3514013,10.437627 0 0 0 8.351563,10.4375 8.3514013,10.437627 0 0 0 8.351562,-10.4375 8.3514013,10.437627 0 0 0 -8.351562,-10.4375 z m -9.863282,23.53125 c -3.846194,0 -6.960937,3.114741 -6.960937,6.957031 0,3.8462 3.114744,6.958984 6.960937,6.958984 3.838396,0 6.953126,-3.112784 6.953126,-6.958984 0,-3.84229 -3.11473,-6.956031 -6.953126,-6.957031 z m 23.269532,4.927734 c -2.690646,0 -4.869141,1.867928 -4.869141,4.173828 0,2.3111 2.179795,4.177735 4.869141,4.177735 2.695845,0 4.873047,-1.866635 4.873047,-4.177735 0,-2.3059 -2.177202,-4.173828 -4.873047,-4.173828 z m 17.998046,31.023438 c -1.5676,0.0455 -6.51819,0.181204 -10.999999,0.308593 L 61.5625,99.449219 c -4.48831,0.12998 -4.523546,0.751101 -0.08203,1.386721 l 23.3125,3.32812 a 5.1655202,5.1655202 0 0 0 -0.08398,0.91406 5.1655202,5.1655202 0 0 0 5.164063,5.16602 5.1655202,5.1655202 0 0 0 5.136719,-4.62109 l 3.720703,0.53125 c 4.436325,0.63561 7.729755,4.80395 7.312505,9.26367 l -4.75391,16.625 c -0.40165,4.45971 0.99132,8.2366 3.11524,8.39258 2.12392,0.15597 3.87176,0.1351 3.88476,-0.0469 0.006,-0.17807 0.18196,-3.98693 0.36914,-8.46484 l 3.89063,-15.60352 c 0.19497,-4.47921 0.44943,-10.43454 0.57031,-13.23437 0.12868,-2.79983 -1.05741,-5.058521 -2.625,-5.011721 z m 35.02734,0.002 c -1.5754,-0.0468 -2.76215,2.211893 -2.64257,5.011723 0.12089,2.79983 0.38379,8.75517 0.57617,13.23438 l 3.88476,15.6035 c 0.19497,4.47661 0.36397,8.28548 0.38477,8.46484 0.008,0.18199 1.75433,0.20155 3.87695,0.0469 2.12522,-0.15468 3.52336,-3.93157 3.10742,-8.39258 l -4.74804,-16.625 c -0.41204,-4.45972 2.88073,-8.62806 7.31445,-9.26367 l 3.71289,-0.53125 c 0.27253,2.6007 2.46728,4.62305 5.14453,4.62305 2.85052,0 5.17188,-2.3116 5.17188,-5.16992 0,-0.31255 -0.0306,-0.61679 -0.084,-0.91407 l 23.30469,-3.32812 c 4.43372,-0.63561 4.40629,-1.256736 -0.082,-1.386716 l -37.92774,-1.064453 c -4.48311,-0.12739 -9.43565,-0.263104 -10.99414,-0.308594 z m 61.12891,27.435543 c -2.14151,0.0949 -4.31585,3.35189 -4.98242,7.62305 -0.70971,4.5572 0.55733,8.54357 2.83203,8.89843 2.2864,0.35355 4.70176,-3.05087 5.42188,-7.60547 0.70969,-4.5572 -0.55736,-8.54031 -2.84376,-8.89257 -0.142,-0.0224 -0.28496,-0.0298 -0.42773,-0.0234 z m -14.31836,16.06836 c -1.49551,0.0926 -2.82777,0.85021 -3.46875,2.13867 -1.03207,2.06413 0.0875,4.71171 2.49219,5.91016 2.40988,1.20234 5.19969,0.50228 6.22265,-1.56055 1.03467,-2.06413 -0.0856,-4.70976 -2.49023,-5.9082 -0.90225,-0.45137 -1.85855,-0.63563 -2.75586,-0.58008 z m 13.69727,5.48047 c -2.46635,0.0849 -4.81154,1.48611 -5.99024,3.85156 -1.71448,3.43934 -0.32084,7.61431 3.1211,9.33008 3.43935,1.71707 7.61559,0.32086 9.33007,-3.11719 1.71577,-3.44325 0.31436,-7.62536 -3.12109,-9.33203 -1.07358,-0.53821 -2.21878,-0.77101 -3.33984,-0.73242 z m -78.02735,54.03125 c 0.005,0 2.52098,2.307 5.60547,5.125 l 10.66797,9.75 c -1.14591,1.35364 -2.12313,2.446 -2.58398,2.78711 -1.31933,0.9762 -8.66887,1.78125 -13.69141,1.78125 -5.01214,0 -10.40116,-0.4065 -11.96875,-0.9043 -0.66778,-0.21205 -2.22631,-1.72062 -4.125,-3.82813 l 10.49219,-9.58593 c 3.08449,-2.818 5.60351,-5.125 5.60351,-5.125 z"
           id="path5090" />
      </g>
    </g>
  </g>
</svg>
