<svg id="Layer_1" data-name="Layer 1" xmlns="http://www.w3.org/2000/svg" viewBox="0 0 64 64"><defs><style>.cls-1{fill:#72544e;}.cls-2{fill:#927266;}.cls-3{fill:#82635a;}.cls-4{fill:#ff0020;}.cls-5{fill:#f4536e;}.cls-6{fill:#ff901d;}.cls-7{fill:#ffb125;}</style></defs><path class="cls-1" d="M55.8,2.2H8.2A7.4,7.4,0,0,0,1.4,6.9l-.2.4A17.7,17.7,0,0,0,0,13.7V50.3A11.5,11.5,0,0,0,11.5,61.8h41A11.5,11.5,0,0,0,64,50.3V14.2a20.2,20.2,0,0,0-1.4-7.3h0A7.4,7.4,0,0,0,55.8,2.2Z"/><path class="cls-2" d="M64,23.1V14.2a20.2,20.2,0,0,0-1.4-7.3l-.2-.6a6.4,6.4,0,0,0-5.9-4.1H7.5A6.4,6.4,0,0,0,1.6,6.3l-.4,1A17.7,17.7,0,0,0,0,13.7v9.4Z"/><path class="cls-3" d="M32,61.8h0a32,32,0,0,1-32-32V13.4a3.1,3.1,0,0,1,3-3H60.4A3.6,3.6,0,0,1,64,14V29.8A32,32,0,0,1,32,61.8Z"/><polygon class="cls-4" points="12.9 19.8 20.1 19.8 19.5 23.1 23.7 19.6 5.8 14.1 12.9 19.8"/><polygon class="cls-5" points="5.8 14.1 23.7 19.6 19.4 14.1 5.8 14.1"/><polygon class="cls-4" points="52 19.8 44.8 19.8 45.4 23.1 41.2 19.6 59.1 14.1 52 19.8"/><polygon class="cls-5" points="59.1 14.1 41.2 19.6 45.5 14.1 59.1 14.1"/><polygon class="cls-6" points="41.3 48.3 32.5 45.2 32.5 45.2 32.5 45.2 23.6 48.3 23.6 53.2 32.5 58.6 32.5 58.6 32.5 58.6 41.3 53.2 41.3 48.3"/><polygon class="cls-7" points="23.6 48.3 23.6 53.2 32.4 58.6 32.5 58.6 32.5 58.6 32.5 45.2 32.5 45.2 23.6 48.3"/><polygon class="cls-6" points="39.7 10.4 32.5 10.4 32.5 2.2 37.8 2.2 39.7 10.4"/><polygon class="cls-7" points="25.2 10.4 32.5 10.4 32.5 2.2 27.1 2.2 25.2 10.4"/><polygon class="cls-6" points="52.7 40.7 46.2 27.7 39.7 25.4 39.7 10.4 32.5 10.4 32.5 22.8 32.5 22.8 18.7 27.7 12.2 40.7 13.4 41.8 24.4 35.7 15 43.3 19 47.1 30.5 42.6 30.8 37.6 25 31.5 39.9 31.5 34.2 37.6 34.4 42.6 45.9 47.1 49.9 43.3 40.5 35.7 51.5 41.8 52.7 40.7"/><polygon class="cls-7" points="32.5 10.4 25.2 10.4 25.2 25.4 18.7 27.7 12.2 40.7 13.4 41.8 24.4 35.7 15 43.3 19 47.1 30.5 42.6 30.8 37.6 25 31.5 32.5 31.5 32.5 25.5 32.5 25.5 32.5 10.4"/></svg>