<?xml version="1.0" encoding="UTF-8" standalone="no"?>
<svg
   width="64"
   height="64"
   viewBox="0 0 64 64"
   fill="none"
   version="1.1"
   id="svg73"
   xmlns="http://www.w3.org/2000/svg"
   xmlns:svg="http://www.w3.org/2000/svg">
  <g
     id="g425">
    <rect
       x="4.99988"
       y="9"
       width="54"
       height="50"
       rx="8"
       fill="url(#paint0_linear_2689_60597)"
       id="rect2" />
    <rect
       x="5"
       y="5"
       width="54"
       height="50"
       rx="8"
       fill="url(#paint1_linear_2689_60597)"
       id="rect4" />
    <rect
       x="5.7"
       y="5.7"
       width="52.6"
       height="48.6"
       rx="7.3"
       stroke="url(#paint2_linear_2689_60597)"
       stroke-width="1.4"
       style="mix-blend-mode:soft-light"
       id="rect6" />
    <path
       d="M31.9999 13.7012C41.708 13.7012 49.578 21.5706 49.578 31.278C49.578 40.9854 41.708 48.8549 31.9999 48.8549C31.8136 48.8549 31.7359 48.8606 31.5511 48.8549V42.8496C31.5511 42.8496 33.6892 42.8758 34.5134 42.7588C36.2512 42.512 38.0646 41.2788 38.6874 39.588C39.0518 38.5981 39.0911 37.5518 39.0957 36.5097L39.0975 27.3863C39.0965 25.84 39.279 23.6538 38.9427 22.1843C38.7267 21.2413 38.2279 20.3936 37.554 19.7049C36.1994 18.3203 34.5832 18.103 32.7311 18.0961C32.486 18.0951 32.2406 18.0971 31.9955 18.1016C30.2624 18.1671 28.7994 18.5373 27.5812 19.8513C26.8708 20.6179 26.426 21.5535 26.2573 22.5831C26.0769 23.6826 26.171 24.8919 26.1703 26.0069L26.1681 42.3559L26.1849 47.8688C19.3347 45.4683 14.4218 38.9475 14.4218 31.278C14.4218 21.5706 22.2917 13.7012 31.9999 13.7012Z"
       fill="#2C2C2C"
       id="path8" />
    <path
       d="M31.9999 13.7012C41.708 13.7012 49.578 21.5706 49.578 31.278C49.578 40.9854 41.708 48.8549 31.9999 48.8549C31.8136 48.8549 31.7359 48.8606 31.5511 48.8549V42.8496C31.5511 42.8496 33.6892 42.8758 34.5134 42.7588C36.2512 42.512 38.0646 41.2788 38.6874 39.588C39.0518 38.5981 39.0911 37.5518 39.0957 36.5097L39.0975 27.3863C39.0965 25.84 39.279 23.6538 38.9427 22.1843C38.7267 21.2413 38.2279 20.3936 37.554 19.7049C36.1994 18.3203 34.5832 18.103 32.7311 18.0961C32.486 18.0951 32.2406 18.0971 31.9955 18.1016C30.2624 18.1671 28.7994 18.5373 27.5812 19.8513C26.8708 20.6179 26.426 21.5535 26.2573 22.5831C26.0769 23.6826 26.171 24.8919 26.1703 26.0069L26.1681 42.3559L26.1849 47.8688C19.3347 45.4683 14.4218 38.9475 14.4218 31.278C14.4218 21.5706 22.2917 13.7012 31.9999 13.7012Z"
       fill="url(#paint3_linear_2689_60597)"
       id="path10" />
    <path
       d="M31.9999 13.7012C41.708 13.7012 49.578 21.5706 49.578 31.278C49.578 40.9854 41.708 48.8549 31.9999 48.8549C31.8136 48.8549 31.7359 48.8606 31.5511 48.8549V42.8496C31.5511 42.8496 33.6892 42.8758 34.5134 42.7588C36.2512 42.512 38.0646 41.2788 38.6874 39.588C39.0518 38.5981 39.0911 37.5518 39.0957 36.5097L39.0975 27.3863C39.0965 25.84 39.279 23.6538 38.9427 22.1843C38.7267 21.2413 38.2279 20.3936 37.554 19.7049C36.1994 18.3203 34.5832 18.103 32.7311 18.0961C32.486 18.0951 32.2406 18.0971 31.9955 18.1016C30.2624 18.1671 28.7994 18.5373 27.5812 19.8513C26.8708 20.6179 26.426 21.5535 26.2573 22.5831C26.0769 23.6826 26.171 24.8919 26.1703 26.0069L26.1681 42.3559L26.1849 47.8688C19.3347 45.4683 14.4218 38.9475 14.4218 31.278C14.4218 21.5706 22.2917 13.7012 31.9999 13.7012Z"
       fill="black"
       fill-opacity="0.8"
       id="path12" />
    <path
       d="M32.3885 23.5133C32.5689 23.5137 32.7295 23.5273 32.9056 23.5706C33.2431 23.6533 33.4059 23.7679 33.5824 24.0633C33.7313 25.099 33.8013 36.2427 33.6032 36.8124C33.4958 37.1219 33.2311 37.244 32.9542 37.3759C32.6948 37.3822 32.4077 37.3982 32.1573 37.3175C31.9387 37.2448 31.7605 37.0827 31.6679 36.8716C31.4211 36.32 31.4595 24.5586 31.6587 24.0746C31.7899 23.7574 32.0955 23.643 32.3885 23.5133Z"
       fill="#2C2C2C"
       id="path14" />
    <path
       d="M32.3885 23.5133C32.5689 23.5137 32.7295 23.5273 32.9056 23.5706C33.2431 23.6533 33.4059 23.7679 33.5824 24.0633C33.7313 25.099 33.8013 36.2427 33.6032 36.8124C33.4958 37.1219 33.2311 37.244 32.9542 37.3759C32.6948 37.3822 32.4077 37.3982 32.1573 37.3175C31.9387 37.2448 31.7605 37.0827 31.6679 36.8716C31.4211 36.32 31.4595 24.5586 31.6587 24.0746C31.7899 23.7574 32.0955 23.643 32.3885 23.5133Z"
       fill="url(#paint4_linear_2689_60597)"
       id="path16" />
    <path
       d="M32.3885 23.5133C32.5689 23.5137 32.7295 23.5273 32.9056 23.5706C33.2431 23.6533 33.4059 23.7679 33.5824 24.0633C33.7313 25.099 33.8013 36.2427 33.6032 36.8124C33.4958 37.1219 33.2311 37.244 32.9542 37.3759C32.6948 37.3822 32.4077 37.3982 32.1573 37.3175C31.9387 37.2448 31.7605 37.0827 31.6679 36.8716C31.4211 36.32 31.4595 24.5586 31.6587 24.0746C31.7899 23.7574 32.0955 23.643 32.3885 23.5133Z"
       fill="black"
       fill-opacity="0.8"
       id="path18" />
    <path
       d="M31.9999 12.1726C41.708 12.1726 49.578 20.042 49.578 29.7495C49.578 39.4569 41.708 47.3263 31.9999 47.3263C31.8136 47.3263 31.7359 47.3321 31.5511 47.3263V41.321C31.5511 41.321 33.6892 41.3472 34.5134 41.2302C36.2512 40.9834 38.0646 39.7502 38.6874 38.0595C39.0518 37.0695 39.0911 36.0233 39.0957 34.9811L39.0975 25.8578C39.0965 24.3114 39.279 22.1252 38.9427 20.6557C38.7267 19.7128 38.2279 18.865 37.554 18.1763C36.1994 16.7918 34.5832 16.5745 32.7311 16.5675C32.486 16.5666 32.2406 16.5685 31.9955 16.573C30.2624 16.6386 28.7994 17.0088 27.5812 18.3228C26.8708 19.0893 26.426 20.0249 26.2573 21.0545C26.0769 22.154 26.171 23.3633 26.1703 24.4784L26.1681 40.8274L26.1849 46.3402C19.3347 43.9398 14.4218 37.4189 14.4218 29.7495C14.4218 20.042 22.2917 12.1726 31.9999 12.1726Z"
       fill="#2C2C2C"
       id="path20" />
    <path
       d="M31.9999 12.1726C41.708 12.1726 49.578 20.042 49.578 29.7495C49.578 39.4569 41.708 47.3263 31.9999 47.3263C31.8136 47.3263 31.7359 47.3321 31.5511 47.3263V41.321C31.5511 41.321 33.6892 41.3472 34.5134 41.2302C36.2512 40.9834 38.0646 39.7502 38.6874 38.0595C39.0518 37.0695 39.0911 36.0233 39.0957 34.9811L39.0975 25.8578C39.0965 24.3114 39.279 22.1252 38.9427 20.6557C38.7267 19.7128 38.2279 18.865 37.554 18.1763C36.1994 16.7918 34.5832 16.5745 32.7311 16.5675C32.486 16.5666 32.2406 16.5685 31.9955 16.573C30.2624 16.6386 28.7994 17.0088 27.5812 18.3228C26.8708 19.0893 26.426 20.0249 26.2573 21.0545C26.0769 22.154 26.171 23.3633 26.1703 24.4784L26.1681 40.8274L26.1849 46.3402C19.3347 43.9398 14.4218 37.4189 14.4218 29.7495C14.4218 20.042 22.2917 12.1726 31.9999 12.1726Z"
       fill="url(#paint5_linear_2689_60597)"
       id="path22" />
    <path
       d="M32.3885 21.9847C32.5689 21.9851 32.7295 21.9988 32.9056 22.0421C33.2431 22.1247 33.4059 22.2394 33.5824 22.5347C33.7313 23.5704 33.8013 34.7141 33.6032 35.2839C33.4958 35.5933 33.2311 35.7154 32.9542 35.8474C32.6948 35.8536 32.4077 35.8697 32.1573 35.7889C31.9387 35.7163 31.7605 35.5541 31.6679 35.343C31.4211 34.7914 31.4595 23.03 31.6587 22.546C31.7899 22.2288 32.0955 22.1144 32.3885 21.9847Z"
       fill="#2C2C2C"
       id="path24" />
    <path
       d="M32.3885 21.9847C32.5689 21.9851 32.7295 21.9988 32.9056 22.0421C33.2431 22.1247 33.4059 22.2394 33.5824 22.5347C33.7313 23.5704 33.8013 34.7141 33.6032 35.2839C33.4958 35.5933 33.2311 35.7154 32.9542 35.8474C32.6948 35.8536 32.4077 35.8697 32.1573 35.7889C31.9387 35.7163 31.7605 35.5541 31.6679 35.343C31.4211 34.7914 31.4595 23.03 31.6587 22.546C31.7899 22.2288 32.0955 22.1144 32.3885 21.9847Z"
       fill="url(#paint6_linear_2689_60597)"
       id="path26" />
  </g>
  <defs
     id="defs71">
    <linearGradient
       id="paint0_linear_2689_60597"
       x1="5.13322"
       y1="58.1673"
       x2="58.6412"
       y2="58.1673"
       gradientUnits="userSpaceOnUse">
      <stop
         stop-color="#616161"
         id="stop28" />
      <stop
         offset="0.0414257"
         stop-color="#808080"
         id="stop30" />
      <stop
         offset="0.0815191"
         stop-color="#222222"
         id="stop32" />
      <stop
         offset="0.899024"
         stop-color="#222222"
         id="stop34" />
      <stop
         offset="0.952865"
         stop-color="#808080"
         id="stop36" />
      <stop
         offset="1"
         stop-color="#616161"
         id="stop38" />
    </linearGradient>
    <linearGradient
       id="paint1_linear_2689_60597"
       x1="32"
       y1="5"
       x2="32"
       y2="55"
       gradientUnits="userSpaceOnUse">
      <stop
         stop-color="#272727"
         id="stop41" />
      <stop
         offset="1"
         stop-color="#2E2E2E"
         id="stop43" />
    </linearGradient>
    <linearGradient
       id="paint2_linear_2689_60597"
       x1="32"
       y1="1"
       x2="32"
       y2="61"
       gradientUnits="userSpaceOnUse">
      <stop
         stop-color="white"
         stop-opacity="0.9"
         id="stop46" />
      <stop
         offset="1"
         stop-color="white"
         stop-opacity="0.1"
         id="stop48" />
    </linearGradient>
    <linearGradient
       id="paint3_linear_2689_60597"
       x1="32.2425"
       y1="26.5394"
       x2="47.0452"
       y2="46.6287"
       gradientUnits="userSpaceOnUse">
      <stop
         stop-color="#584D4D"
         id="stop51" />
      <stop
         offset="1"
         id="stop53" />
    </linearGradient>
    <linearGradient
       id="paint4_linear_2689_60597"
       x1="32.2425"
       y1="26.5394"
       x2="47.0452"
       y2="46.6287"
       gradientUnits="userSpaceOnUse">
      <stop
         stop-color="#584D4D"
         id="stop56" />
      <stop
         offset="1"
         id="stop58" />
    </linearGradient>
    <linearGradient
       id="paint5_linear_2689_60597"
       x1="32.2425"
       y1="25.0108"
       x2="47.0452"
       y2="45.1001"
       gradientUnits="userSpaceOnUse">
      <stop
         stop-color="#C2C2C2"
         id="stop61" />
      <stop
         offset="1"
         stop-color="#FFCA47"
         id="stop63" />
    </linearGradient>
    <linearGradient
       id="paint6_linear_2689_60597"
       x1="32.2425"
       y1="25.0108"
       x2="47.0452"
       y2="45.1001"
       gradientUnits="userSpaceOnUse">
      <stop
         stop-color="#C2C2C2"
         id="stop66" />
      <stop
         offset="1"
         stop-color="#FFCA47"
         id="stop68" />
    </linearGradient>
  </defs>
</svg>
