<?xml version="1.0" encoding="UTF-8" standalone="no"?>
<svg
   width="64"
   height="64"
   viewBox="0 0 64 64"
   fill="none"
   version="1.1"
   id="svg73"
   xmlns="http://www.w3.org/2000/svg"
   xmlns:svg="http://www.w3.org/2000/svg">
  <g
     id="g317"
     transform="translate(-4.8799353)">
    <rect
       x="9.8798704"
       y="9.0000095"
       width="54"
       height="50"
       rx="8"
       fill="url(#paint0_linear_2691_1026)"
       id="rect2"
       style="fill:url(#paint0_linear_2691_1026)" />
    <rect
       x="9.8800001"
       y="5"
       width="54"
       height="50"
       rx="8"
       fill="url(#paint1_linear_2691_1026)"
       id="rect4"
       style="fill:url(#paint1_linear_2691_1026)" />
    <rect
       x="10.58"
       y="5.6999998"
       width="52.599998"
       height="48.599998"
       rx="7.3000002"
       stroke="url(#paint2_linear_2691_1026)"
       stroke-width="1.4"
       style="mix-blend-mode:soft-light;stroke:url(#paint2_linear_2691_1026)"
       id="rect6" />
    <path
       d="m 36.8799,13.7011 c 9.7081,0 17.5781,7.8695 17.5781,17.5769 0,9.7074 -7.87,17.5768 -17.5781,17.5768 -0.1863,0 -0.264,0.0058 -0.4488,0 v -6.0052 c 0,0 2.1381,0.0261 2.9623,-0.0909 1.7378,-0.2467 3.5512,-1.48 4.174,-3.1707 0.3644,-0.9899 0.4037,-2.0362 0.4083,-3.0784 l 0.0018,-9.1233 c -10e-4,-1.5463 0.1815,-3.7325 -0.1548,-5.202 -0.216,-0.943 -0.7148,-1.7907 -1.3887,-2.4795 -1.3546,-1.3845 -2.9708,-1.6018 -4.8229,-1.6087 -0.2451,-0.001 -0.4905,0.001 -0.7356,0.0055 -1.7331,0.0655 -3.1961,0.4357 -4.4143,1.7497 -0.7104,0.7666 -1.1553,1.7022 -1.3239,2.7318 -0.1804,1.0994 -0.0863,2.3087 -0.087,3.4238 l -0.0022,16.349 0.0168,5.5129 C 24.2147,45.4683 19.3018,38.9475 19.3018,31.278 c 0,-9.7074 7.8699,-17.5769 17.5781,-17.5769 z"
       fill="#2c2c2c"
       id="path8" />
    <path
       d="m 36.8799,13.7011 c 9.7081,0 17.5781,7.8695 17.5781,17.5769 0,9.7074 -7.87,17.5768 -17.5781,17.5768 -0.1863,0 -0.264,0.0058 -0.4488,0 v -6.0052 c 0,0 2.1381,0.0261 2.9623,-0.0909 1.7378,-0.2467 3.5512,-1.48 4.174,-3.1707 0.3644,-0.9899 0.4037,-2.0362 0.4083,-3.0784 l 0.0018,-9.1233 c -10e-4,-1.5463 0.1815,-3.7325 -0.1548,-5.202 -0.216,-0.943 -0.7148,-1.7907 -1.3887,-2.4795 -1.3546,-1.3845 -2.9708,-1.6018 -4.8229,-1.6087 -0.2451,-0.001 -0.4905,0.001 -0.7356,0.0055 -1.7331,0.0655 -3.1961,0.4357 -4.4143,1.7497 -0.7104,0.7666 -1.1553,1.7022 -1.3239,2.7318 -0.1804,1.0994 -0.0863,2.3087 -0.087,3.4238 l -0.0022,16.349 0.0168,5.5129 C 24.2147,45.4683 19.3018,38.9475 19.3018,31.278 c 0,-9.7074 7.8699,-17.5769 17.5781,-17.5769 z"
       fill="url(#paint3_linear_2691_1026)"
       id="path10"
       style="fill:url(#paint3_linear_2691_1026)" />
    <path
       d="m 36.8799,13.7011 c 9.7081,0 17.5781,7.8695 17.5781,17.5769 0,9.7074 -7.87,17.5768 -17.5781,17.5768 -0.1863,0 -0.264,0.0058 -0.4488,0 v -6.0052 c 0,0 2.1381,0.0261 2.9623,-0.0909 1.7378,-0.2467 3.5512,-1.48 4.174,-3.1707 0.3644,-0.9899 0.4037,-2.0362 0.4083,-3.0784 l 0.0018,-9.1233 c -10e-4,-1.5463 0.1815,-3.7325 -0.1548,-5.202 -0.216,-0.943 -0.7148,-1.7907 -1.3887,-2.4795 -1.3546,-1.3845 -2.9708,-1.6018 -4.8229,-1.6087 -0.2451,-0.001 -0.4905,0.001 -0.7356,0.0055 -1.7331,0.0655 -3.1961,0.4357 -4.4143,1.7497 -0.7104,0.7666 -1.1553,1.7022 -1.3239,2.7318 -0.1804,1.0994 -0.0863,2.3087 -0.087,3.4238 l -0.0022,16.349 0.0168,5.5129 C 24.2147,45.4683 19.3018,38.9475 19.3018,31.278 c 0,-9.7074 7.8699,-17.5769 17.5781,-17.5769 z"
       fill="#000000"
       fill-opacity="0.8"
       id="path12" />
    <path
       d="m 37.2685,23.5133 c 0.1804,4e-4 0.341,0.014 0.5171,0.0573 0.3375,0.0826 0.5003,0.1973 0.6768,0.4927 0.1489,1.0357 0.2189,12.1794 0.0208,12.7491 -0.1074,0.3095 -0.3721,0.4315 -0.649,0.5635 -0.2594,0.0063 -0.5465,0.0223 -0.7969,-0.0584 -0.2186,-0.0727 -0.3968,-0.2348 -0.4895,-0.4459 -0.2467,-0.5516 -0.2083,-12.313 -0.0091,-12.797 0.1312,-0.3173 0.4368,-0.4316 0.7298,-0.5613 z"
       fill="#2c2c2c"
       id="path14" />
    <path
       d="m 37.2685,23.5133 c 0.1804,4e-4 0.341,0.014 0.5171,0.0573 0.3375,0.0826 0.5003,0.1973 0.6768,0.4927 0.1489,1.0357 0.2189,12.1794 0.0208,12.7491 -0.1074,0.3095 -0.3721,0.4315 -0.649,0.5635 -0.2594,0.0063 -0.5465,0.0223 -0.7969,-0.0584 -0.2186,-0.0727 -0.3968,-0.2348 -0.4895,-0.4459 -0.2467,-0.5516 -0.2083,-12.313 -0.0091,-12.797 0.1312,-0.3173 0.4368,-0.4316 0.7298,-0.5613 z"
       fill="url(#paint4_linear_2691_1026)"
       id="path16"
       style="fill:url(#paint4_linear_2691_1026)" />
    <path
       d="m 37.2685,23.5133 c 0.1804,4e-4 0.341,0.014 0.5171,0.0573 0.3375,0.0826 0.5003,0.1973 0.6768,0.4927 0.1489,1.0357 0.2189,12.1794 0.0208,12.7491 -0.1074,0.3095 -0.3721,0.4315 -0.649,0.5635 -0.2594,0.0063 -0.5465,0.0223 -0.7969,-0.0584 -0.2186,-0.0727 -0.3968,-0.2348 -0.4895,-0.4459 -0.2467,-0.5516 -0.2083,-12.313 -0.0091,-12.797 0.1312,-0.3173 0.4368,-0.4316 0.7298,-0.5613 z"
       fill="#000000"
       fill-opacity="0.8"
       id="path18" />
    <path
       d="m 36.8799,12.1726 c 9.7081,0 17.5781,7.8695 17.5781,17.5769 0,9.7074 -7.87,17.5768 -17.5781,17.5768 -0.1863,0 -0.264,0.0058 -0.4488,0 v -6.0052 c 0,0 2.1381,0.0261 2.9623,-0.0909 1.7378,-0.2467 3.5512,-1.48 4.174,-3.1707 0.3644,-0.9899 0.4037,-2.0362 0.4083,-3.0784 l 0.0018,-9.1233 c -10e-4,-1.5464 0.1815,-3.7325 -0.1548,-5.2021 -0.216,-0.9429 -0.7148,-1.7906 -1.3887,-2.4794 -1.3546,-1.3845 -2.9708,-1.6018 -4.8229,-1.6087 -0.2451,-10e-4 -0.4905,9e-4 -0.7356,0.0055 -1.7331,0.0655 -3.1961,0.4357 -4.4143,1.7497 -0.7104,0.7665 -1.1553,1.7021 -1.3239,2.7317 -0.1804,1.0995 -0.0863,2.3088 -0.087,3.4239 l -0.0022,16.349 0.0168,5.5129 C 24.2147,43.9398 19.3018,37.419 19.3018,29.7495 c 0,-9.7074 7.8699,-17.5769 17.5781,-17.5769 z"
       fill="#2c2c2c"
       id="path20" />
    <path
       d="m 36.8799,12.1726 c 9.7081,0 17.5781,7.8695 17.5781,17.5769 0,9.7074 -7.87,17.5768 -17.5781,17.5768 -0.1863,0 -0.264,0.0058 -0.4488,0 v -6.0052 c 0,0 2.1381,0.0261 2.9623,-0.0909 1.7378,-0.2467 3.5512,-1.48 4.174,-3.1707 0.3644,-0.9899 0.4037,-2.0362 0.4083,-3.0784 l 0.0018,-9.1233 c -10e-4,-1.5464 0.1815,-3.7325 -0.1548,-5.2021 -0.216,-0.9429 -0.7148,-1.7906 -1.3887,-2.4794 -1.3546,-1.3845 -2.9708,-1.6018 -4.8229,-1.6087 -0.2451,-10e-4 -0.4905,9e-4 -0.7356,0.0055 -1.7331,0.0655 -3.1961,0.4357 -4.4143,1.7497 -0.7104,0.7665 -1.1553,1.7021 -1.3239,2.7317 -0.1804,1.0995 -0.0863,2.3088 -0.087,3.4239 l -0.0022,16.349 0.0168,5.5129 C 24.2147,43.9398 19.3018,37.419 19.3018,29.7495 c 0,-9.7074 7.8699,-17.5769 17.5781,-17.5769 z"
       fill="url(#paint5_linear_2691_1026)"
       id="path22"
       style="fill:url(#paint5_linear_2691_1026)" />
    <path
       d="m 37.2685,21.9847 c 0.1804,5e-4 0.341,0.0141 0.5171,0.0574 0.3375,0.0826 0.5003,0.1973 0.6768,0.4926 0.1489,1.0357 0.2189,12.1794 0.0208,12.7492 -0.1074,0.3095 -0.3721,0.4315 -0.649,0.5635 -0.2594,0.0062 -0.5465,0.0223 -0.7969,-0.0584 -0.2186,-0.0727 -0.3968,-0.2349 -0.4895,-0.446 -0.2467,-0.5515 -0.2083,-12.3129 -0.0091,-12.7969 0.1312,-0.3173 0.4368,-0.4317 0.7298,-0.5614 z"
       fill="#2c2c2c"
       id="path24" />
    <path
       d="m 37.2685,21.9847 c 0.1804,5e-4 0.341,0.0141 0.5171,0.0574 0.3375,0.0826 0.5003,0.1973 0.6768,0.4926 0.1489,1.0357 0.2189,12.1794 0.0208,12.7492 -0.1074,0.3095 -0.3721,0.4315 -0.649,0.5635 -0.2594,0.0062 -0.5465,0.0223 -0.7969,-0.0584 -0.2186,-0.0727 -0.3968,-0.2349 -0.4895,-0.446 -0.2467,-0.5515 -0.2083,-12.3129 -0.0091,-12.7969 0.1312,-0.3173 0.4368,-0.4317 0.7298,-0.5614 z"
       fill="url(#paint6_linear_2691_1026)"
       id="path26"
       style="fill:url(#paint6_linear_2691_1026)" />
  </g>
  <defs
     id="defs71">
    <linearGradient
       id="paint0_linear_2691_1026"
       x1="10.0132"
       y1="58.167301"
       x2="63.521198"
       y2="58.167301"
       gradientUnits="userSpaceOnUse">
      <stop
         offset="0.0254757"
         stop-color="#4A4A4A"
         id="stop28" />
      <stop
         offset="0.084693"
         stop-color="#808080"
         id="stop30" />
      <stop
         offset="0.14391"
         stop-color="#222222"
         id="stop32" />
      <stop
         offset="0.84874"
         stop-color="#222222"
         id="stop34" />
      <stop
         offset="0.907049"
         stop-color="#808080"
         id="stop36" />
      <stop
         offset="0.977455"
         stop-color="#4A4A4A"
         id="stop38" />
    </linearGradient>
    <linearGradient
       id="paint1_linear_2691_1026"
       x1="36.880001"
       y1="5"
       x2="36.880001"
       y2="55"
       gradientUnits="userSpaceOnUse">
      <stop
         stop-color="#272727"
         id="stop41" />
      <stop
         offset="1"
         stop-color="#2E2E2E"
         id="stop43" />
    </linearGradient>
    <linearGradient
       id="paint2_linear_2691_1026"
       x1="36.880001"
       y1="1"
       x2="36.880001"
       y2="61"
       gradientUnits="userSpaceOnUse">
      <stop
         stop-color="white"
         stop-opacity="0.9"
         id="stop46" />
      <stop
         offset="1"
         stop-color="white"
         stop-opacity="0.1"
         id="stop48" />
    </linearGradient>
    <linearGradient
       id="paint3_linear_2691_1026"
       x1="37.122501"
       y1="26.5394"
       x2="51.925201"
       y2="46.628601"
       gradientUnits="userSpaceOnUse">
      <stop
         stop-color="#584D4D"
         id="stop51" />
      <stop
         offset="1"
         id="stop53" />
    </linearGradient>
    <linearGradient
       id="paint4_linear_2691_1026"
       x1="37.122501"
       y1="26.5394"
       x2="51.925201"
       y2="46.628601"
       gradientUnits="userSpaceOnUse">
      <stop
         stop-color="#584D4D"
         id="stop56" />
      <stop
         offset="1"
         id="stop58" />
    </linearGradient>
    <linearGradient
       id="paint5_linear_2691_1026"
       x1="37.122501"
       y1="25.010799"
       x2="51.925201"
       y2="45.100101"
       gradientUnits="userSpaceOnUse">
      <stop
         stop-color="#C2C2C2"
         id="stop61" />
      <stop
         offset="1"
         stop-color="#FFCA47"
         id="stop63" />
    </linearGradient>
    <linearGradient
       id="paint6_linear_2691_1026"
       x1="37.122501"
       y1="25.010799"
       x2="51.925201"
       y2="45.100101"
       gradientUnits="userSpaceOnUse">
      <stop
         stop-color="#C2C2C2"
         id="stop66" />
      <stop
         offset="1"
         stop-color="#FFCA47"
         id="stop68" />
    </linearGradient>
  </defs>
</svg>
