<?xml version="1.0" encoding="UTF-8" standalone="no"?>
<svg
   xmlns:dc="http://purl.org/dc/elements/1.1/"
   xmlns:cc="http://creativecommons.org/ns#"
   xmlns:rdf="http://www.w3.org/1999/02/22-rdf-syntax-ns#"
   xmlns:svg="http://www.w3.org/2000/svg"
   xmlns="http://www.w3.org/2000/svg"
   xmlns:sodipodi="http://sodipodi.sourceforge.net/DTD/sodipodi-0.dtd"
   xmlns:inkscape="http://www.inkscape.org/namespaces/inkscape"
   width="22"
   height="22"
   viewBox="0 0 22 22"
   version="1.1"
   id="svg7"
   sodipodi:docname="rating-half.svg"
   inkscape:version="1.0.2 (e86c870879, 2021-01-15)">
  <metadata
     id="metadata11">
    <rdf:RDF>
      <cc:Work
         rdf:about="">
        <dc:format>image/svg+xml</dc:format>
        <dc:type
           rdf:resource="http://purl.org/dc/dcmitype/StillImage" />
      </cc:Work>
    </rdf:RDF>
  </metadata>
  <sodipodi:namedview
     pagecolor="#ffffff"
     bordercolor="#666666"
     borderopacity="1"
     objecttolerance="10"
     gridtolerance="10"
     guidetolerance="10"
     inkscape:pageopacity="0"
     inkscape:pageshadow="2"
     inkscape:window-width="1920"
     inkscape:window-height="1011"
     id="namedview9"
     showgrid="false"
     inkscape:zoom="32"
     inkscape:cx="7.7580732"
     inkscape:cy="9.7229802"
     inkscape:window-x="0"
     inkscape:window-y="0"
     inkscape:window-maximized="1"
     inkscape:current-layer="svg7"
     inkscape:document-rotation="0" />
  <defs
     id="defs3">
    <style
       id="current-color-scheme"
       type="text/css">
   .ColorScheme-Text { color:#444444; } .ColorScheme-Highlight { color:#4285f4; } .ColorScheme-NeutralText { color:#ff9800; } .ColorScheme-PositiveText { color:#4caf50; } .ColorScheme-NegativeText { color:#f44336; }
  </style>
  </defs>
  <path
     style="opacity:1;fill:none;fill-opacity:1;stroke:#2b88e5;stroke-width:1;stroke-linecap:square;stroke-linejoin:miter;stroke-miterlimit:4;stroke-dasharray:none;stroke-dashoffset:0;stroke-opacity:1;paint-order:normal"
     class="ColorScheme-Text"
     d="M 8,0.390625 5.8808594,5.8847656 0,6.2011719 4.5722656,9.9160156 3.0566406,15.607422 8,12.40625 12.943359,15.607422 11.427734,9.9160156 16,6.2011719 10.119141,5.8847656 8.4811388,1.638038 Z"
     id="path5"
     transform="translate(3,3)"
     sodipodi:nodetypes="cccccccccccc" />
  <g
     id="g879">
    <rect
       style="fill:#2b88e5;fill-opacity:1;fill-rule:evenodd;stroke:#2b88e5;stroke-width:0.614926;stroke-opacity:1"
       id="rect847"
       width="0.35544568"
       height="10.438869"
       x="10.335023"
       y="5.0491085"
       ry="0" />
    <path
       style="fill:#2b88e5;fill-opacity:1;fill-rule:evenodd;stroke:#2b88e5;stroke-width:0.0275309;stroke-opacity:1"
       d="m 6.2381858,18.039683 c 0.038216,-0.109985 1.6467935,-5.506056 1.6421194,-5.508591 -0.077119,-0.04182 -4.9768743,-3.6064206 -4.9680524,-3.6142816 0.00709,-0.0063 1.4468154,-0.08041 3.1994117,-0.1646663 1.7525965,-0.084257 3.1960361,-0.1625995 3.2076431,-0.1740939 0.01161,-0.011495 0.240465,-0.5296319 0.5085734,-1.1514167 0.268108,-0.6217848 0.492928,-1.1353907 0.499602,-1.1413465 0.0068,-0.00596 0.01161,2.1166888 0.011,4.716988 l -0.0012,4.727816 -2.0297797,1.169502 c -1.1163786,0.643225 -2.0424426,1.173809 -2.0579208,1.179072 -0.015477,0.0052 -0.020549,-0.01228 -0.011269,-0.03898 z"
       id="path873" />
  </g>
</svg>
